<svg xmlns="http://www.w3.org/2000/svg" xmlns:xlink="http://www.w3.org/1999/xlink" viewBox="0 0 349.56 223.05"><defs><style>.cls-1{isolation:isolate;}.cls-2{fill:#114687;}.cls-3{fill:#0b2d57;}.cls-4{fill:url(#linear-gradient);}.cls-5{fill:#1b6cd1;}.cls-6{fill:url(#radial-gradient);}.cls-7{fill:#f6d874;}.cls-18,.cls-8{mix-blend-mode:screen;}.cls-8{fill:url(#radial-gradient-2);}.cls-9{fill:#cce0e6;}.cls-10{fill:#95b8c2;}.cls-11{fill:url(#linear-gradient-2);}.cls-12{fill:#fff;}.cls-13,.cls-16,.cls-19{opacity:0.31;mix-blend-mode:multiply;}.cls-13{fill:url(#radial-gradient-3);}.cls-14{opacity:0.26;}.cls-15{fill:url(#linear-gradient-3);}.cls-16{fill:url(#radial-gradient-4);}.cls-17{fill:url(#radial-gradient-5);}.cls-18{fill:url(#radial-gradient-6);}.cls-19{fill:url(#radial-gradient-7);}.cls-20{fill:#009ecf;}</style><linearGradient id="linear-gradient" x1="1153.09" y1="177.88" x2="1328.53" y2="177.88" gradientUnits="userSpaceOnUse"><stop offset="0.01" stop-color="#110b57" stop-opacity="0"/><stop offset="0.01" stop-color="#110b57" stop-opacity="0.02"/><stop offset="0.08" stop-color="#110b57" stop-opacity="0.32"/><stop offset="0.17" stop-color="#110b57" stop-opacity="0.57"/><stop offset="0.26" stop-color="#110b57" stop-opacity="0.76"/><stop offset="0.38" stop-color="#110b57" stop-opacity="0.9"/><stop offset="0.54" stop-color="#110b57" stop-opacity="0.98"/><stop offset="1" stop-color="#110b57"/></linearGradient><radialGradient id="radial-gradient" cx="1057.13" cy="-7.07" r="371.72" gradientUnits="userSpaceOnUse"><stop offset="0" stop-color="#c1b2ff" stop-opacity="0"/><stop offset="0.48" stop-color="#6536d0" stop-opacity="0.3"/><stop offset="1" stop-color="#120047"/></radialGradient><radialGradient id="radial-gradient-2" cx="1130.2" cy="-30.78" r="227.04" gradientUnits="userSpaceOnUse"><stop offset="0" stop-color="#fff"/><stop offset="0.15" stop-color="#00d4fa"/><stop offset="0.17" stop-color="#00cbef"/><stop offset="0.23" stop-color="#00a1be"/><stop offset="0.29" stop-color="#007b90"/><stop offset="0.36" stop-color="#005a6a"/><stop offset="0.44" stop-color="#003e49"/><stop offset="0.52" stop-color="#00272e"/><stop offset="0.6" stop-color="#00161a"/><stop offset="0.7" stop-color="#00090b"/><stop offset="0.81" stop-color="#000203"/><stop offset="1"/></radialGradient><linearGradient id="linear-gradient-2" x1="1154.02" y1="156.62" x2="1287.3" y2="156.62" gradientUnits="userSpaceOnUse"><stop offset="0.01" stop-color="#6a8dab" stop-opacity="0"/><stop offset="0.01" stop-color="#6a8dab" stop-opacity="0.01"/><stop offset="0.2" stop-color="#6a8dab" stop-opacity="0.31"/><stop offset="0.38" stop-color="#6a8dab" stop-opacity="0.56"/><stop offset="0.55" stop-color="#6a8dab" stop-opacity="0.75"/><stop offset="0.72" stop-color="#6a8dab" stop-opacity="0.89"/><stop offset="0.87" stop-color="#6a8dab" stop-opacity="0.97"/><stop offset="1" stop-color="#6a8dab"/></linearGradient><radialGradient id="radial-gradient-3" cx="1081.34" cy="25.96" r="180.82" gradientUnits="userSpaceOnUse"><stop offset="0.22" stop-color="#fff"/><stop offset="0.33" stop-color="#fcfdfe"/><stop offset="0.43" stop-color="#f1f8f9"/><stop offset="0.52" stop-color="#dfeff2"/><stop offset="0.6" stop-color="#c6e3e8"/><stop offset="0.69" stop-color="#a5d3db"/><stop offset="0.77" stop-color="#7dbfcb"/><stop offset="0.85" stop-color="#4ea8b8"/><stop offset="0.93" stop-color="#188ea3"/><stop offset="0.94" stop-color="#138ba1"/></radialGradient><linearGradient id="linear-gradient-3" x1="1058.31" y1="3.3" x2="1136.8" y2="216.59" gradientUnits="userSpaceOnUse"><stop offset="0" stop-color="#fff"/><stop offset="0.04" stop-color="#f3fdff"/><stop offset="0.12" stop-color="#d4f8fe"/><stop offset="0.22" stop-color="#a2effd"/><stop offset="0.34" stop-color="#5ce3fc"/><stop offset="0.48" stop-color="#04d5fa"/><stop offset="0.48" stop-color="#00d4fa"/><stop offset="0.55" stop-color="#00c0e2"/><stop offset="0.68" stop-color="#008ca5"/><stop offset="0.87" stop-color="#003943"/><stop offset="1"/></linearGradient><radialGradient id="radial-gradient-4" cx="1078.6" cy="-1.51" r="95.9" xlink:href="#radial-gradient-3"/><radialGradient id="radial-gradient-5" cx="1124.82" cy="-23.82" r="257.48" gradientUnits="userSpaceOnUse"><stop offset="0" stop-color="#f7fcff" stop-opacity="0"/><stop offset="0.71" stop-color="#6f9cd0" stop-opacity="0.3"/><stop offset="1" stop-color="#133047"/></radialGradient><radialGradient id="radial-gradient-6" cx="1090.12" cy="24.47" r="255.74" xlink:href="#radial-gradient-2"/><radialGradient id="radial-gradient-7" cx="1161.48" cy="99" r="80.72" xlink:href="#radial-gradient-3"/></defs><title>Asset 15</title><g class="cls-1"><g id="Layer_2" data-name="Layer 2"><g id="OBJECTS"><path class="cls-2" d="M1317.57,126.33,1159.14,35a8.85,8.85,0,0,0-8.82,0l-16.12,9.31c3,1.76,3,4.62-.08,6.42a12.09,12.09,0,0,1-11.13.06L991.35,126.8v-.47H979V139h0a8.73,8.73,0,0,0,4.41,7.71L1150,243a8.82,8.82,0,0,0,8.83,0l135.43-78.13-.23-.16h.23v-6c.11-.08.23-.15.35-.22a12.18,12.18,0,0,1,10.85-.12l18.62-10.74a8.84,8.84,0,0,0,4.42-7.65V126.33Z" transform="translate(-978.97 -21.13)"/><path class="cls-3" d="M1292,111.6H1153.09V244.06a8.88,8.88,0,0,0,5.77-1.07l135.43-78.13-.23-.16h.23v-6c.11-.08.23-.15.35-.22a12.18,12.18,0,0,1,10.85-.12l18.62-10.74a8.84,8.84,0,0,0,4.42-7.65V126.33h-11Z" transform="translate(-978.97 -21.13)"/><path class="cls-4" d="M1292,111.6H1153.09V244.06a8.88,8.88,0,0,0,5.77-1.07l135.43-78.13-.23-.16h.23v-6c.11-.08.23-.15.35-.22a12.18,12.18,0,0,1,10.85-.12l18.62-10.74a8.84,8.84,0,0,0,4.42-7.65V126.33h-11Z" transform="translate(-978.97 -21.13)"/><path class="cls-5" d="M1324.11,117.46l-165-95.15a8.8,8.8,0,0,0-8.82,0l-16.12,9.31c3,1.76,3,4.62-.08,6.42a12.12,12.12,0,0,1-11.13.06L983.38,118.76a8.82,8.82,0,0,0,0,15.28L1150,230.34a8.84,8.84,0,0,0,8.83,0l135.43-78.13c-2.83-1.8-2.68-4.61.35-6.35a12.18,12.18,0,0,1,10.85-.12L1324.11,135a8.82,8.82,0,0,0,4.42-7.64V125.1A8.82,8.82,0,0,0,1324.11,117.46Z" transform="translate(-978.97 -21.13)"/><path class="cls-6" d="M1324.11,117.46l-165-95.15a8.8,8.8,0,0,0-8.82,0l-16.12,9.31c3,1.76,3,4.62-.08,6.42a12.12,12.12,0,0,1-11.13.06L983.38,118.76a8.82,8.82,0,0,0,0,15.28L1150,230.34a8.84,8.84,0,0,0,8.83,0l135.43-78.13c-2.83-1.8-2.68-4.61.35-6.35a12.18,12.18,0,0,1,10.85-.12L1324.11,135a8.82,8.82,0,0,0,4.42-7.64V125.1A8.82,8.82,0,0,0,1324.11,117.46Z" transform="translate(-978.97 -21.13)"/><polygon class="cls-7" points="19.51 88.87 22.1 87.36 31.22 92.61 28.46 94.21 19.51 88.87"/><polygon class="cls-7" points="28.72 83.55 31.31 82.05 40.44 87.3 37.67 88.89 28.72 83.55"/><polygon class="cls-7" points="37.93 78.24 40.53 76.74 49.65 81.98 46.89 83.58 37.93 78.24"/><polygon class="cls-7" points="47.15 72.92 49.76 71.43 58.86 76.67 56.1 78.27 47.15 72.92"/><polygon class="cls-7" points="56.36 67.61 58.95 66.11 68.08 71.35 65.31 72.95 56.36 67.61"/><polygon class="cls-7" points="65.57 62.3 68.17 60.8 77.29 66.04 74.53 67.64 65.57 62.3"/><polygon class="cls-7" points="74.79 56.98 77.38 55.48 86.5 60.73 83.74 62.33 74.79 56.98"/><polygon class="cls-7" points="84 51.67 86.59 50.17 95.72 55.41 92.95 57.01 84 51.67"/><polygon class="cls-7" points="93.21 46.36 95.81 44.85 104.93 50.1 102.17 51.7 93.21 46.36"/><polygon class="cls-7" points="102.43 41.04 105.02 39.54 114.14 44.78 111.38 46.38 102.43 41.04"/><polygon class="cls-7" points="111.64 35.73 114.23 34.23 123.36 39.47 120.6 41.07 111.64 35.73"/><polygon class="cls-7" points="120.86 30.41 123.45 28.91 132.57 34.16 129.81 35.76 120.86 30.41"/><polygon class="cls-7" points="130.07 25.1 132.66 23.6 141.78 28.84 139.02 30.44 130.07 25.1"/><polygon class="cls-7" points="196.45 189.58 199.04 188.08 207.81 193.12 205.05 194.72 196.45 189.58"/><polygon class="cls-7" points="205.66 184.27 208.25 182.77 217.03 187.81 214.27 189.41 205.66 184.27"/><polygon class="cls-7" points="214.88 178.95 217.47 177.45 226.24 182.5 223.48 184.09 214.88 178.95"/><polygon class="cls-7" points="224.09 173.64 226.68 172.14 235.46 177.18 232.69 178.78 224.09 173.64"/><polygon class="cls-7" points="233.3 168.33 235.89 166.83 244.67 171.87 241.91 173.47 233.3 168.33"/><polygon class="cls-7" points="242.51 163.01 245.11 161.51 253.88 166.55 251.12 168.15 242.51 163.01"/><polygon class="cls-7" points="251.73 157.7 254.32 156.2 263.1 161.24 260.33 162.84 251.73 157.7"/><polygon class="cls-7" points="260.94 152.38 263.54 150.88 272.31 155.93 269.55 157.53 260.94 152.38"/><polygon class="cls-7" points="270.16 147.07 272.75 145.57 281.52 150.61 278.76 152.21 270.16 147.07"/><polygon class="cls-7" points="279.37 141.76 281.96 140.26 290.74 145.3 287.97 146.9 279.37 141.76"/><polygon class="cls-7" points="288.58 136.44 291.18 134.94 299.95 139.99 297.19 141.58 288.58 136.44"/><polygon class="cls-7" points="297.8 131.13 300.39 129.63 309.16 134.67 306.4 136.27 297.8 131.13"/><path d="M1168.65,35.54a4.64,4.64,0,0,1-4.3,0c-1.17-.69-1.13-1.8.07-2.49a4.69,4.69,0,0,1,4.24,0A1.32,1.32,0,0,1,1168.65,35.54Z" transform="translate(-978.97 -21.13)"/><path class="cls-7" d="M1168.65,34.62a4.64,4.64,0,0,1-4.3,0c-1.17-.69-1.13-1.81.07-2.49a4.69,4.69,0,0,1,4.24,0A1.32,1.32,0,0,1,1168.65,34.62Z" transform="translate(-978.97 -21.13)"/><path d="M1177.13,40.4a4.66,4.66,0,0,1-4.31,0c-1.16-.69-1.12-1.81.07-2.49a4.71,4.71,0,0,1,4.25,0A1.32,1.32,0,0,1,1177.13,40.4Z" transform="translate(-978.97 -21.13)"/><path class="cls-7" d="M1177.13,39.48a4.69,4.69,0,0,1-4.31,0c-1.16-.69-1.12-1.81.07-2.49a4.68,4.68,0,0,1,4.25,0A1.32,1.32,0,0,1,1177.13,39.48Z" transform="translate(-978.97 -21.13)"/><path d="M1185.6,45.26a4.64,4.64,0,0,1-4.3,0c-1.17-.69-1.13-1.81.07-2.49a4.66,4.66,0,0,1,4.24,0A1.32,1.32,0,0,1,1185.6,45.26Z" transform="translate(-978.97 -21.13)"/><path class="cls-7" d="M1185.6,44.34a4.7,4.7,0,0,1-4.3,0c-1.17-.69-1.13-1.81.07-2.5a4.66,4.66,0,0,1,4.24,0A1.32,1.32,0,0,1,1185.6,44.34Z" transform="translate(-978.97 -21.13)"/><path d="M1194.07,50.12a4.67,4.67,0,0,1-4.3,0c-1.16-.69-1.13-1.81.07-2.49a4.66,4.66,0,0,1,4.24,0C1195.26,48.3,1195.26,49.42,1194.07,50.12Z" transform="translate(-978.97 -21.13)"/><path class="cls-7" d="M1194.07,49.2a4.7,4.7,0,0,1-4.3,0c-1.16-.69-1.13-1.81.07-2.5a4.66,4.66,0,0,1,4.24,0C1195.26,47.38,1195.26,48.5,1194.07,49.2Z" transform="translate(-978.97 -21.13)"/><path d="M1202.55,55a4.72,4.72,0,0,1-4.31,0c-1.16-.69-1.12-1.81.07-2.5a4.68,4.68,0,0,1,4.25,0A1.32,1.32,0,0,1,1202.55,55Z" transform="translate(-978.97 -21.13)"/><path class="cls-7" d="M1202.55,54.06a4.72,4.72,0,0,1-4.31,0c-1.16-.69-1.12-1.81.07-2.5a4.71,4.71,0,0,1,4.25,0A1.33,1.33,0,0,1,1202.55,54.06Z" transform="translate(-978.97 -21.13)"/><path d="M1211,59.84a4.7,4.7,0,0,1-4.3,0c-1.17-.69-1.13-1.81.07-2.5a4.69,4.69,0,0,1,4.24,0A1.32,1.32,0,0,1,1211,59.84Z" transform="translate(-978.97 -21.13)"/><path class="cls-7" d="M1211,58.92a4.66,4.66,0,0,1-4.3,0c-1.17-.69-1.13-1.8.07-2.49a4.69,4.69,0,0,1,4.24,0C1212.21,57.1,1212.21,58.21,1211,58.92Z" transform="translate(-978.97 -21.13)"/><path d="M1219.5,64.7a4.72,4.72,0,0,1-4.31,0c-1.16-.69-1.12-1.81.07-2.5a4.71,4.71,0,0,1,4.25,0A1.33,1.33,0,0,1,1219.5,64.7Z" transform="translate(-978.97 -21.13)"/><path class="cls-7" d="M1219.5,63.77a4.66,4.66,0,0,1-4.31,0c-1.16-.69-1.12-1.8.07-2.49a4.71,4.71,0,0,1,4.25,0A1.32,1.32,0,0,1,1219.5,63.77Z" transform="translate(-978.97 -21.13)"/><path d="M1228,69.56a4.66,4.66,0,0,1-4.3,0c-1.17-.69-1.13-1.8.07-2.49a4.69,4.69,0,0,1,4.24,0A1.33,1.33,0,0,1,1228,69.56Z" transform="translate(-978.97 -21.13)"/><path class="cls-7" d="M1228,68.63a4.64,4.64,0,0,1-4.3,0c-1.17-.69-1.13-1.8.07-2.49a4.69,4.69,0,0,1,4.24,0A1.32,1.32,0,0,1,1228,68.63Z" transform="translate(-978.97 -21.13)"/><path d="M1236.45,74.41a4.66,4.66,0,0,1-4.31,0c-1.16-.69-1.12-1.8.07-2.49a4.71,4.71,0,0,1,4.25,0A1.32,1.32,0,0,1,1236.45,74.41Z" transform="translate(-978.97 -21.13)"/><path class="cls-7" d="M1236.45,73.49a4.66,4.66,0,0,1-4.31,0c-1.16-.69-1.12-1.81.07-2.49a4.71,4.71,0,0,1,4.25,0A1.32,1.32,0,0,1,1236.45,73.49Z" transform="translate(-978.97 -21.13)"/><path d="M1244.92,79.27a4.64,4.64,0,0,1-4.3,0c-1.17-.69-1.13-1.8.07-2.49a4.69,4.69,0,0,1,4.24,0A1.32,1.32,0,0,1,1244.92,79.27Z" transform="translate(-978.97 -21.13)"/><path class="cls-7" d="M1244.92,78.35a4.64,4.64,0,0,1-4.3,0c-1.17-.69-1.13-1.81.07-2.49a4.66,4.66,0,0,1,4.24,0A1.32,1.32,0,0,1,1244.92,78.35Z" transform="translate(-978.97 -21.13)"/><path d="M1253.39,84.13a4.64,4.64,0,0,1-4.3,0c-1.16-.69-1.13-1.81.07-2.49a4.69,4.69,0,0,1,4.24,0C1254.58,82.32,1254.58,83.43,1253.39,84.13Z" transform="translate(-978.97 -21.13)"/><path class="cls-7" d="M1253.39,83.21a4.67,4.67,0,0,1-4.3,0c-1.16-.69-1.13-1.81.07-2.5a4.69,4.69,0,0,1,4.24,0C1254.58,81.39,1254.58,82.51,1253.39,83.21Z" transform="translate(-978.97 -21.13)"/><path d="M1261.87,89a4.66,4.66,0,0,1-4.31,0c-1.16-.69-1.12-1.81.07-2.49a4.68,4.68,0,0,1,4.25,0A1.32,1.32,0,0,1,1261.87,89Z" transform="translate(-978.97 -21.13)"/><path class="cls-7" d="M1261.87,88.07a4.72,4.72,0,0,1-4.31,0c-1.16-.69-1.12-1.81.07-2.5a4.68,4.68,0,0,1,4.25,0A1.32,1.32,0,0,1,1261.87,88.07Z" transform="translate(-978.97 -21.13)"/><path d="M1270.34,93.85a4.67,4.67,0,0,1-4.3,0c-1.17-.69-1.13-1.81.07-2.5a4.69,4.69,0,0,1,4.24,0C1271.53,92,1271.53,93.15,1270.34,93.85Z" transform="translate(-978.97 -21.13)"/><path class="cls-7" d="M1270.34,92.93a4.7,4.7,0,0,1-4.3,0c-1.17-.69-1.13-1.81.07-2.5a4.69,4.69,0,0,1,4.24,0A1.32,1.32,0,0,1,1270.34,92.93Z" transform="translate(-978.97 -21.13)"/><path d="M1278.82,98.71a4.72,4.72,0,0,1-4.31,0c-1.16-.69-1.12-1.81.07-2.5a4.68,4.68,0,0,1,4.25,0A1.32,1.32,0,0,1,1278.82,98.71Z" transform="translate(-978.97 -21.13)"/><path class="cls-7" d="M1278.82,97.79a4.72,4.72,0,0,1-4.31,0c-1.16-.69-1.12-1.81.07-2.5a4.71,4.71,0,0,1,4.25,0A1.33,1.33,0,0,1,1278.82,97.79Z" transform="translate(-978.97 -21.13)"/><path d="M1287.29,103.57a4.7,4.7,0,0,1-4.3,0c-1.17-.69-1.13-1.81.07-2.5a4.69,4.69,0,0,1,4.24,0A1.33,1.33,0,0,1,1287.29,103.57Z" transform="translate(-978.97 -21.13)"/><path class="cls-7" d="M1287.29,102.64a4.64,4.64,0,0,1-4.3,0c-1.17-.69-1.13-1.8.07-2.49a4.69,4.69,0,0,1,4.24,0A1.32,1.32,0,0,1,1287.29,102.64Z" transform="translate(-978.97 -21.13)"/><path d="M1295.77,108.43a4.72,4.72,0,0,1-4.31,0c-1.16-.7-1.13-1.81.07-2.5a4.71,4.71,0,0,1,4.25,0A1.33,1.33,0,0,1,1295.77,108.43Z" transform="translate(-978.97 -21.13)"/><path class="cls-7" d="M1295.77,107.5a4.66,4.66,0,0,1-4.31,0c-1.16-.69-1.13-1.8.07-2.49a4.71,4.71,0,0,1,4.25,0A1.32,1.32,0,0,1,1295.77,107.5Z" transform="translate(-978.97 -21.13)"/><path d="M1304.24,113.28a4.64,4.64,0,0,1-4.3,0c-1.17-.69-1.13-1.8.07-2.49a4.69,4.69,0,0,1,4.24,0A1.32,1.32,0,0,1,1304.24,113.28Z" transform="translate(-978.97 -21.13)"/><path class="cls-7" d="M1304.24,112.36a4.64,4.64,0,0,1-4.3,0c-1.17-.69-1.13-1.81.07-2.49a4.69,4.69,0,0,1,4.24,0A1.32,1.32,0,0,1,1304.24,112.36Z" transform="translate(-978.97 -21.13)"/><path d="M1312.71,118.14a4.64,4.64,0,0,1-4.3,0c-1.16-.69-1.13-1.8.07-2.49a4.69,4.69,0,0,1,4.24,0C1313.9,116.33,1313.9,117.44,1312.71,118.14Z" transform="translate(-978.97 -21.13)"/><path class="cls-7" d="M1312.71,117.22a4.64,4.64,0,0,1-4.3,0c-1.16-.69-1.13-1.81.07-2.49a4.69,4.69,0,0,1,4.24,0C1313.9,115.41,1313.9,116.52,1312.71,117.22Z" transform="translate(-978.97 -21.13)"/><path d="M1104,194a4.72,4.72,0,0,1-4.31,0c-1.16-.69-1.12-1.81.07-2.5a4.71,4.71,0,0,1,4.25,0A1.33,1.33,0,0,1,1104,194Z" transform="translate(-978.97 -21.13)"/><path class="cls-7" d="M1104,193.1a4.66,4.66,0,0,1-4.31,0c-1.16-.69-1.12-1.8.07-2.49a4.71,4.71,0,0,1,4.25,0A1.32,1.32,0,0,1,1104,193.1Z" transform="translate(-978.97 -21.13)"/><path d="M1112.45,198.89a4.66,4.66,0,0,1-4.3,0c-1.17-.69-1.13-1.8.07-2.49a4.69,4.69,0,0,1,4.24,0A1.33,1.33,0,0,1,1112.45,198.89Z" transform="translate(-978.97 -21.13)"/><path class="cls-7" d="M1112.45,198a4.64,4.64,0,0,1-4.3,0c-1.17-.69-1.13-1.8.07-2.49a4.69,4.69,0,0,1,4.24,0A1.32,1.32,0,0,1,1112.45,198Z" transform="translate(-978.97 -21.13)"/><path d="M1120.92,203.74a4.64,4.64,0,0,1-4.3,0c-1.16-.69-1.13-1.8.07-2.49a4.69,4.69,0,0,1,4.24,0C1122.11,201.93,1122.11,203,1120.92,203.74Z" transform="translate(-978.97 -21.13)"/><path class="cls-7" d="M1120.92,202.82a4.64,4.64,0,0,1-4.3,0c-1.16-.69-1.13-1.81.07-2.49a4.69,4.69,0,0,1,4.24,0C1122.11,201,1122.11,202.12,1120.92,202.82Z" transform="translate(-978.97 -21.13)"/><path d="M1129.4,208.6a4.64,4.64,0,0,1-4.3,0c-1.17-.69-1.13-1.8.06-2.49a4.71,4.71,0,0,1,4.25,0A1.32,1.32,0,0,1,1129.4,208.6Z" transform="translate(-978.97 -21.13)"/><path class="cls-7" d="M1129.4,207.68a4.64,4.64,0,0,1-4.3,0c-1.17-.69-1.13-1.81.06-2.49a4.68,4.68,0,0,1,4.25,0A1.32,1.32,0,0,1,1129.4,207.68Z" transform="translate(-978.97 -21.13)"/><path d="M1137.87,213.46a4.64,4.64,0,0,1-4.3,0c-1.17-.69-1.13-1.81.07-2.49a4.69,4.69,0,0,1,4.24,0C1139.06,211.65,1139.06,212.76,1137.87,213.46Z" transform="translate(-978.97 -21.13)"/><path class="cls-7" d="M1137.87,212.54a4.67,4.67,0,0,1-4.3,0c-1.17-.69-1.13-1.81.07-2.49a4.66,4.66,0,0,1,4.24,0C1139.06,210.72,1139.06,211.84,1137.87,212.54Z" transform="translate(-978.97 -21.13)"/><path d="M1146.35,218.32a4.66,4.66,0,0,1-4.31,0c-1.16-.69-1.12-1.81.07-2.49a4.68,4.68,0,0,1,4.25,0A1.32,1.32,0,0,1,1146.35,218.32Z" transform="translate(-978.97 -21.13)"/><path class="cls-7" d="M1146.35,217.4a4.72,4.72,0,0,1-4.31,0c-1.16-.69-1.12-1.81.07-2.5a4.68,4.68,0,0,1,4.25,0A1.32,1.32,0,0,1,1146.35,217.4Z" transform="translate(-978.97 -21.13)"/><polygon class="cls-7" points="42.18 134.74 51.11 129.58 48.13 127.84 39.16 132.98 42.18 134.74"/><polygon class="cls-7" points="53.65 141.33 62.58 136.17 59.6 134.44 50.63 139.57 53.65 141.33"/><polygon class="cls-7" points="65.12 147.92 74.05 142.76 71.07 141.03 62.1 146.16 65.12 147.92"/><polygon class="cls-7" points="76.59 154.51 85.52 149.36 82.53 147.62 73.57 152.75 76.59 154.51"/><polygon class="cls-7" points="88.06 161.1 96.98 155.95 94 154.21 85.03 159.34 88.06 161.1"/><polygon class="cls-7" points="99.52 167.69 108.45 162.54 105.47 160.8 96.5 165.93 99.52 167.69"/><path class="cls-8" d="M1324.11,117.46l-165-95.15a8.8,8.8,0,0,0-8.82,0l-16.12,9.31c3,1.76,3,4.62-.08,6.42a12.12,12.12,0,0,1-11.13.06L983.38,118.76a8.82,8.82,0,0,0,0,15.28L1150,230.34a8.84,8.84,0,0,0,8.83,0l135.43-78.13c-2.83-1.8-2.68-4.61.35-6.35a12.18,12.18,0,0,1,10.85-.12L1324.11,135a8.82,8.82,0,0,0,4.42-7.64V125.1A8.82,8.82,0,0,0,1324.11,117.46Z" transform="translate(-978.97 -21.13)"/><path class="cls-9" d="M1287.3,115.87l-8.45,2.16L1157.11,48.29a6.47,6.47,0,0,0-6.47,0l-117.17,68-11.27-.61V125h0a4,4,0,0,0,2,3.72l127.32,71.87a6.46,6.46,0,0,0,6.37,0l20.17-11.38,16.3,2.42a8.6,8.6,0,0,0,5.53-1l64.1-37a8.56,8.56,0,0,0,4.27-7.4v-7.88l16.91-9.55a4,4,0,0,0,2-4.32h.1Z" transform="translate(-978.97 -21.13)"/><path class="cls-10" d="M1267.94,111.78H1154.26v15.5a2,2,0,0,1-.24,1v73.15a6.4,6.4,0,0,0,3.93-.79l20.17-11.38,16.3,2.42a8.6,8.6,0,0,0,5.53-1l64.1-37a8.56,8.56,0,0,0,4.27-7.4v-7.88l16.91-9.55a4,4,0,0,0,2-4.32h.1v-8.58l-8.45,2.16Z" transform="translate(-978.97 -21.13)"/><path class="cls-11" d="M1267.94,111.78H1154.26v15.5a2,2,0,0,1-.24,1v73.15a6.4,6.4,0,0,0,3.93-.79l20.17-11.38,16.3,2.42a8.6,8.6,0,0,0,5.53-1l64.1-37a8.56,8.56,0,0,0,4.27-7.4v-7.88l16.91-9.55a4,4,0,0,0,2-4.32h.1v-8.58l-8.45,2.16Z" transform="translate(-978.97 -21.13)"/><path class="cls-12" d="M1286.2,113.05h0l0-.06-7.29-7.9v3.55L1157.11,38.9a6.47,6.47,0,0,0-6.47,0l-120,69.67v-3.5l-7.36,8h0a4.06,4.06,0,0,0,1,6.29l127.32,71.88a6.51,6.51,0,0,0,6.37,0l127.28-71.85A4.07,4.07,0,0,0,1286.2,113.05Z" transform="translate(-978.97 -21.13)"/><path class="cls-13" d="M1286.2,113.05h0l0-.06-7.29-7.9v3.55L1157.11,38.9a6.47,6.47,0,0,0-6.47,0l-120,69.67v-3.5l-7.36,8h0a4.06,4.06,0,0,0,1,6.29l127.32,71.88a6.51,6.51,0,0,0,6.37,0l127.28-71.85A4.07,4.07,0,0,0,1286.2,113.05Z" transform="translate(-978.97 -21.13)"/><g class="cls-14"><path class="cls-15" d="M1113.62,47a8.52,8.52,0,0,0-5.52,1.06l-64.11,37a8.56,8.56,0,0,0-4.27,7.4v10.14l90.7-53.1Z" transform="translate(-978.97 -21.13)"/></g><path class="cls-12" d="M1130.42,59l-16.8-2.5a8.58,8.58,0,0,0-5.52,1l-64.11,37a8.56,8.56,0,0,0-4.27,7.4v10.13Z" transform="translate(-978.97 -21.13)"/><path class="cls-12" d="M1130.42,49.49l-16.8-2.5a8.52,8.52,0,0,0-5.52,1.06l-64.11,37a8.56,8.56,0,0,0-4.27,7.4v10.14Z" transform="translate(-978.97 -21.13)"/><path class="cls-16" d="M1130.42,49.49l-16.8-2.5a8.52,8.52,0,0,0-5.52,1.06l-64.11,37a8.56,8.56,0,0,0-4.27,7.4v10.14Z" transform="translate(-978.97 -21.13)"/><path class="cls-9" d="M1031.24,104.63,1150.86,35.2a6.11,6.11,0,0,1,6.12,0l121.26,69.46a3.85,3.85,0,0,1,0,6.69l-120.44,68a6.11,6.11,0,0,1-6,0l-120.47-68A3.85,3.85,0,0,1,1031.24,104.63Z" transform="translate(-978.97 -21.13)"/><path class="cls-17" d="M1031.24,104.63,1150.86,35.2a6.11,6.11,0,0,1,6.12,0l121.26,69.46a3.85,3.85,0,0,1,0,6.69l-120.44,68a6.11,6.11,0,0,1-6,0l-120.47-68A3.85,3.85,0,0,1,1031.24,104.63Z" transform="translate(-978.97 -21.13)"/><path class="cls-18" d="M1031.24,104.63,1150.86,35.2a6.11,6.11,0,0,1,6.12,0l121.26,69.46a3.85,3.85,0,0,1,0,6.69l-120.44,68a6.11,6.11,0,0,1-6,0l-120.47-68A3.85,3.85,0,0,1,1031.24,104.63Z" transform="translate(-978.97 -21.13)"/><path class="cls-12" d="M1177.62,179.69l16.8,2.5a8.54,8.54,0,0,0,5.53-1.05l64.1-37a8.53,8.53,0,0,0,4.27-7.4V126.6Z" transform="translate(-978.97 -21.13)"/><path class="cls-19" d="M1177.62,179.69l16.8,2.5a8.54,8.54,0,0,0,5.53-1.05l64.1-37a8.53,8.53,0,0,0,4.27-7.4V126.6Z" transform="translate(-978.97 -21.13)"/><polygon class="cls-20" points="206.18 96.58 157.84 68.67 160.92 66.83 209.27 94.73 206.18 96.58"/><polygon class="cls-20" points="191.15 105.81 142.8 77.9 145.89 76.05 194.23 103.96 191.15 105.81"/><polygon class="cls-20" points="209.73 106.66 142.23 67.71 145.32 65.86 212.82 104.81 209.73 106.66"/><path class="cls-20" d="M1156.49,74.68l12.14-7.27,2.58,1.49c.87.5,1.18,1,.93,1.55a5.41,5.41,0,0,1-2.05,1.83l-.26.15a10.51,10.51,0,0,1-3.21,1.37,3.78,3.78,0,0,1-2.7-.46l-.93-.54-4.78,2.87Zm8-2.79.59.34a1.47,1.47,0,0,0,1.16.14,9.32,9.32,0,0,0,1.88-.94l.23-.14a5.54,5.54,0,0,0,1.37-1c.19-.24.12-.47-.22-.66l-.6-.35Z" transform="translate(-978.97 -21.13)"/><path class="cls-20" d="M1170.49,76.05l-.53-.33-5.73,3.43-1.71-1,12.14-7.27,2.82,1.63c.59.34.9.67.94,1a1.18,1.18,0,0,1-.5,1,11.48,11.48,0,0,1-1.65,1.15,8,8,0,0,1-1.91.89,2.83,2.83,0,0,1-1.58,0c.31.27.3.59,0,1a15.08,15.08,0,0,1-2.84,2,28.09,28.09,0,0,0-2.44,1.54l-1.71-1q.07-.12,4.28-2.64.81-.48.9-.75C1171,76.46,1170.84,76.26,1170.49,76.05Zm.91-1.19.69.39a1.21,1.21,0,0,0,.64.19,2.2,2.2,0,0,0,.76-.2,11.63,11.63,0,0,0,1.24-.68l.07,0a3.68,3.68,0,0,0,1.14-.86c.1-.18,0-.38-.41-.59l-.58-.34Z" transform="translate(-978.97 -21.13)"/><path class="cls-20" d="M1174,83.89a4.29,4.29,0,0,1-2.75-.56q-1.31-.75-1-1.62c.18-.59.86-1.23,2-1.94l5.55-3.33q3.35-2,5.86-.54c.87.5,1.21,1,1,1.59a4,4,0,0,1-1.92,1.82l-5.55,3.33A8.43,8.43,0,0,1,1174,83.89Zm-1.36-2.13c-.18.22-.12.42.2.6a1.24,1.24,0,0,0,1,.1,8.33,8.33,0,0,0,1.63-.8l5.65-3.39a4.27,4.27,0,0,0,1.11-.84c.16-.22.1-.41-.2-.58a1.32,1.32,0,0,0-1-.11,5.33,5.33,0,0,0-1.42.64l-5.66,3.4A5.45,5.45,0,0,0,1172.59,81.76Z" transform="translate(-978.97 -21.13)"/><path class="cls-20" d="M1180.23,87.55a4.26,4.26,0,0,1-2.68-.55q-1.24-.72-1-1.62a4.2,4.2,0,0,1,2-1.9l5.29-3.17a6.94,6.94,0,0,1,4.7-1.27,4,4,0,0,1,1.42.53q2.37,1.37-.85,3.3l-1.67,1-1.65-1,1.55-.93a4.7,4.7,0,0,0,1.19-.89c.17-.21.11-.4-.17-.57a1.35,1.35,0,0,0-1-.09,6.4,6.4,0,0,0-1.48.69l-5.66,3.4a4.59,4.59,0,0,0-1.24.93c-.18.23-.12.43.16.59a1.27,1.27,0,0,0,1,.08,6.92,6.92,0,0,0,1.57-.76l1.74-1,1.68,1-1.72,1A8.41,8.41,0,0,1,1180.23,87.55Z" transform="translate(-978.97 -21.13)"/><path class="cls-20" d="M1181.49,89.11l12.13-7.28,3.77,2.18-1.59.95-2.06-1.18-3.53,2.11,2,1.13-1.56.93-1.95-1.12-3.86,2.31,2.13,1.23-1.59,1Z" transform="translate(-978.97 -21.13)"/><path class="cls-20" d="M1189.89,89.94l1.09-.65,1.62.94-1.22.73a5,5,0,0,0-1.27.94c-.16.23-.1.43.19.6a1.22,1.22,0,0,0,.93.13,4.8,4.8,0,0,0,1.24-.58,3.22,3.22,0,0,0,1.08-.94,2.57,2.57,0,0,0,.38-1.18l.09-1a3,3,0,0,1,.46-1.33,3.58,3.58,0,0,1,1.3-1.16,6.78,6.78,0,0,1,2.77-1,4.24,4.24,0,0,1,2.58.62c.87.51,1.18,1,.92,1.54a5.31,5.31,0,0,1-2,1.75l-.75.45-1.58-.91.87-.52a4.46,4.46,0,0,0,1.12-.84c.16-.2.11-.38-.16-.54a1.34,1.34,0,0,0-.86-.16,3.1,3.1,0,0,0-1.05.42,2.06,2.06,0,0,0-.74.66,2.75,2.75,0,0,0-.24.9l-.15,1.18a3.65,3.65,0,0,1-.6,1.6,4.51,4.51,0,0,1-1.47,1.29,8.27,8.27,0,0,1-3,1.21,4.14,4.14,0,0,1-2.67-.59c-.88-.51-1.2-1-.94-1.6A5.24,5.24,0,0,1,1189.89,89.94Z" transform="translate(-978.97 -21.13)"/><path class="cls-20" d="M1195.67,93.28l1.09-.65,1.62.93-1.22.73a4.92,4.92,0,0,0-1.27.95c-.16.22-.1.42.19.59a1.23,1.23,0,0,0,.93.14,5.17,5.17,0,0,0,1.24-.58,3.24,3.24,0,0,0,1.08-1,2.53,2.53,0,0,0,.38-1.18l.09-1a3,3,0,0,1,.46-1.34,3.87,3.87,0,0,1,1.3-1.16,6.93,6.93,0,0,1,2.77-1,4.32,4.32,0,0,1,2.58.63c.87.5,1.18,1,.92,1.53a5.23,5.23,0,0,1-2,1.76l-.75.45-1.58-.91.87-.52a4.46,4.46,0,0,0,1.12-.84c.16-.21.11-.39-.16-.54a1.22,1.22,0,0,0-.86-.16,3.1,3.1,0,0,0-1,.42,2,2,0,0,0-.74.66,2.61,2.61,0,0,0-.24.9l-.15,1.18a3.66,3.66,0,0,1-.6,1.59,4.53,4.53,0,0,1-1.47,1.3,8.23,8.23,0,0,1-3,1.2,4.13,4.13,0,0,1-2.67-.58c-.88-.51-1.2-1-.94-1.61A5.31,5.31,0,0,1,1195.67,93.28Z" transform="translate(-978.97 -21.13)"/><path class="cls-20" d="M1203.24,100.79a4.29,4.29,0,0,1-2.75-.56q-1.29-.75-1-1.62c.18-.59.86-1.23,2-1.94l5.54-3.33q3.35-2,5.86-.54c.87.5,1.21,1,1,1.59a4,4,0,0,1-1.92,1.82l-5.54,3.33A8.53,8.53,0,0,1,1203.24,100.79Zm-1.36-2.13c-.18.22-.11.43.2.61a1.29,1.29,0,0,0,1,.09,7.56,7.56,0,0,0,1.63-.8l5.65-3.39a4.27,4.27,0,0,0,1.11-.84c.16-.22.1-.41-.19-.58a1.38,1.38,0,0,0-1-.11,5,5,0,0,0-1.43.65l-5.66,3.39A5.73,5.73,0,0,0,1201.88,98.66Z" transform="translate(-978.97 -21.13)"/><path class="cls-20" d="M1212.61,100.35l-.52-.33-5.73,3.43-1.71-1,12.13-7.28,2.83,1.64c.58.34.9.67.93,1a1.18,1.18,0,0,1-.5,1,11.14,11.14,0,0,1-1.65,1.15,7.88,7.88,0,0,1-1.9.88,3,3,0,0,1-1.59,0c.32.26.3.59,0,1a15.15,15.15,0,0,1-2.85,2,25.43,25.43,0,0,0-2.44,1.54l-1.71-1q.08-.12,4.29-2.65c.53-.32.83-.57.89-.74S1213,100.57,1212.61,100.35Zm.92-1.19.68.4a1.22,1.22,0,0,0,.64.18,2,2,0,0,0,.76-.2,11.18,11.18,0,0,0,1.24-.67l.08-.05a3.73,3.73,0,0,0,1.13-.86c.1-.18,0-.37-.4-.59l-.58-.33Z" transform="translate(-978.97 -21.13)"/></g></g></g></svg>